<?xml version="1.0" encoding="utf-8"?>
<!-- Generator: Adobe Illustrator 26.1.0, SVG Export Plug-In . SVG Version: 6.00 Build 0)  -->
<svg version="1.1" id="Laag_1" xmlns="http://www.w3.org/2000/svg" xmlns:xlink="http://www.w3.org/1999/xlink" x="0px" y="0px"
	 viewBox="0 0 1920 1080" style="enable-background:new 0 0 1920 1080;" xml:space="preserve">
<style type="text/css">
	.st0{fill:#FFFFFF;}
	.st1{font-family:'Acme-Regular';}
	.st2{font-size:108px;}
	.st3{fill:none;}
	.st4{font-size:29px;}
	.st5{fill:#00909B;}
</style>
<path d="M977.1,470.4c-1.8,2.5-4.2,6.8-5,12.6c-0.6,4.5,0.2,8,1.7,14.3c0.5,2.1,1.4,6.1,3.4,10.8c0.5,1.3,1.3,3.1,2.2,4.9
	c1.7,3.8,2.2,4.7,2.8,6.1c1.9,4.5,2.7,8.4,3,9.9c0.5,2.6,1.2,7.3,0.4,13.4c-0.9,6.4-3.1,10.8-3.7,12c-1.8,3.6-3.7,5.7-4.2,6.3
	c-2.4,2.6-4.6,4-5.3,4.5c-0.7,0.4-1.5,0.9-2.7,1.4c0,0-0.5,0.2-2.8,0.9c-1.6,0.5-5.3,1.3-9.8,0c-5.1-1.5-7.9-5-8.9-6.2
	c-4-5.1-4.1-10.7-4.1-12.6c0-4.1,1.3-7.3,2.1-9.1c1.1-2.3,3.1-5.6,6.5-8.8c2.7-2.5,5.3-4.1,7.3-5.1c0.2,0,0.4-0.1,0.7-0.1
	c0.3-0.1,0.4,0,0.4,0.1c0.2,0.2,0.1,0.6-0.3,1c-2.1,1.5-8.6,5.7-9.9,13.7c-1.3,7.5-1.8,11.3,1.5,18.2s11.1,6.9,11.1,6.9
	s5.6,0.1,9.4-5c3.9-5.1,5-12.9,5-12.9c0.3-8.8-1.1-15.2-2.5-19.5c-0.6-1.8-0.7-1.8-2.2-6.2c0,0,0,0,0,0c-1.3-4.1-2.3-6.6-2.9-8.3
	c-0.6-1.6-1.3-3.9-2-6.8c-1-3.8-1.7-8.8-1.8-14.7c-0.1-3.5,0.3-5.6,0.7-7.1c0,0,0.1-0.2,2-6c-2,0.6-3.5,0.5-4.5,0.3
	c-2-0.5-4.3-2-4.4-2.1c0.1-0.5,0.5-1.5,1.3-2.4c1-1.1,2.1-1.6,2.7-1.7C964.3,472.8,968.8,477.8,977.1,470.4z"/>
<path d="M948.8,527.9c-0.1-0.1-0.3-0.1-0.4-0.2l-0.4-0.5c-2-2.3-4.5-5.6-6.9-9.9c-5.2-9.3-6.6-17.5-6.9-19.9
	c-0.5-3.3-1.8-14.5,2.9-27.6c7.9-21.8,26.4-31.3,28.8-32.5c20.5-10.1,39.9-4.4,45.7-2.3c3.9,1.4,14,5,22.9,14.8
	c8.3,9.1,11.2,18.6,12.6,23.6c1.3,4.4,3,10.5,2.6,18.6c-0.9,15.8-9.3,26.6-12,30.1c-4.1,5.2-8.3,8.7-10.2,10.2c-4.3,3.4-8,5.3-9,5.8
	c-9.1,4.7-18.8,6.4-18.9,6.1c0,0,0,0,0,0c0.3-0.3,0.3-4.2,0.1-13.6c-1.9-20.4-2.9-35.5-3-40.8c-0.1-3.2,0.2-5.6,0.4-7.4
	c0.4-2.6,0.9-4.9,1.5-6.8c0,0,2.9-7.1,9-7.5c2.6-0.2,4.8,0.6,5.4,0.9c3.1,1.5,4.3,4.4,5.1,6.4c1.4,3.4,1.3,6.3,1.2,8.1
	c-0.2,3.6-1.2,6.1-1.5,6.9c-0.7,1.7-1.6,3.6-3.6,4.8c-0.4,0.3-1.4,0.9-2.9,1c-0.5,0.1-1.5,0.2-2.6-0.2c-1.5-0.5-2.6-1.8-3.6-3.1
	c-0.9-1.1-1-1.6-1.7-1.7c-0.5-0.1-1.1,0.1-2.4,0.6c-0.6,0.2-0.7,0.2-0.7,0.3c-0.7,0.8,0.1,2.8,0.7,3.7c0.7,1.2,1.7,2,2.5,2.5
	c0,0,3.9,2.9,9.9,0.7c2-0.8,3.8-2,4.4-2.5c1.4-1.1,2.2-2.1,2.5-2.5c0.8-1,1.4-2,2.1-3.6c1.1-2.4,2-4.4,2.8-7.3
	c0.4-1.8,0.9-4.2,1-7.1c0,0-0.2-4.4-1.8-8c-1.2-2.5-2.8-4.1-3.6-4.7c-0.9-0.8-3.7-3.1-8-3.4c-3.7-0.2-6.5,1.2-7.6,1.9
	c-1.9,1.7-4.8,4.6-7,8.9c-1.8,3.4-2.6,6.6-2.9,8.9c-0.7-5.8-1.4-11.6-2-17.3c-1.2,0.1-2.4,0.3-3.6,0.4c-2.8,0.3-3.7,1.2-4.1,1.5
	c-0.9,0.7-1.2,1.3-1.3,1.6c-0.1,0.2-0.2,0.6-0.3,1.6c-0.1,1.3,0,2.3,0.1,2.4c0.2,1.3,0.3,2.7,0.5,4c0.6,4.2,0.5,4.8,1,8.3
	c0.1,0.5,0.2,1.4,0.4,2.7c0.2,1.5,0.3,2.3,0.8,6c1.2,8.2,2.1,12.3,3,17.8c0.8,4.8,1.4,9.8,2.6,19.7c1,8,2.2,18.6,3.4,31.3
	c0.1,0,0.6,0.2,1.2,0c0.7-0.2,0.9-0.8,1-0.9c0.2-1.6,0.4-3.3,0.6-5.1c0.3-1.8,0.6-3.6,0.9-5.3c7.6-1.2,13.5-3.2,17.6-4.9
	c2.6-1.1,5.4-2.3,8.8-4.5c5.1-3.4,8.2-7,10.4-9.6c2.8-3.3,6.7-8.6,9.8-16c1.8-3.9,4-9.6,5.1-16.9c0.3-2.2,1.4-10.4-0.4-20.1
	c-4.1-21.7-19.7-34.7-21.6-36.2c-2.7-2.2-21.8-17.1-47.8-12.9c-24.5,4-43.5,23.1-49.1,44.7c0,0-4.7,18,2.4,37.3
	c1.4,3.8,4.1,11.1,10.8,17.8c0.8,0.8,1.5,1.4,2,1.8l0.2,0.2c0.2,0,0.3,0.1,0.5,0.1"/>
<rect x="1031.9" y="457" transform="matrix(0.9932 -0.1163 0.1163 0.9932 -50.2574 124.9898)" class="st0" width="27.3" height="72"/>
<rect x="956.6" y="458.4" transform="matrix(0.9932 -0.1163 0.1163 0.9932 -50.6056 119.0015)" class="st0" width="74.9" height="69.2"/>
<rect x="941.4" y="522.1" transform="matrix(0.9932 -0.1163 0.1163 0.9932 -57.2422 116.7839)" class="st0" width="60.7" height="53.3"/>
<text transform="matrix(1 0 0 1 943.9909 549.7955)" class="st1 st2">J</text>
<text transform="matrix(1 0 0 1 974.7692 509.5262)" class="st1 st2">p</text>
<rect x="1033.4" y="460.5" class="st3" width="280" height="110.5"/>
<text id="Academie_beeldende_kunsten_vilvoorden" transform="matrix(1 0 0 1 1033.412 482.9159)"><tspan x="0" y="0" class="st1 st4">Academie beeldende</tspan><tspan x="0" y="34.8" class="st1 st4">kunsten Vilvoorde</tspan></text>
<path class="st5" d="M3701.1,1752.4c0,38.5-31.2,69.7-69.7,69.7c-46.1,0-78-51.7-69.7-69.7c5.8-12.6,29-3.8,47.8-23.1
	c18.4-18.8,9.7-41,21.9-46.7C3649.2,1674.4,3701.1,1706.3,3701.1,1752.4z"/>
</svg>
