<?xml version="1.0" encoding="UTF-8"?><svg id="a" xmlns="http://www.w3.org/2000/svg" viewBox="0 0 1920 1080"><defs><style>.c{isolation:isolate;}.d{fill:#020202;}</style></defs><g id="b" class="c" transform="matrix(1 0 0 1 862.7291 515.079)"><g class="c"><path d="M790.86,512.48l-5.62-22.37h-27.41l-6.08,21.79-14.68-1.15,10.09-27.87,15.37-49.32,20.53-1.49,14.8,49.09,9.52,28.79-16.52,2.52Zm-18.12-65.5h-1.49l-9.86,30.97h20.42l-9.06-30.97Z"/><path d="M835.48,467.74c-3.37,0-5.96,1.2-7.8,3.61-1.83,2.41-2.75,6.1-2.75,11.07s.94,8.97,2.81,11.99c1.87,3.02,4.61,4.53,8.2,4.53,1.84,0,3.63-.57,5.39-1.72,1.76-1.15,3.1-2.29,4.01-3.44l1.26-1.84,5.74,5.96c-.23,.38-.52,.92-.86,1.61-.34,.69-1.19,1.91-2.52,3.67-1.34,1.76-2.75,3.31-4.24,4.65-1.49,1.34-3.42,2.56-5.79,3.67-2.37,1.11-4.86,1.66-7.46,1.66-5.74,0-10.4-2.33-13.99-7-3.59-4.66-5.39-10.74-5.39-18.24,0-9.33,2.71-17.51,8.14-24.55,5.43-7.03,11.78-10.55,19.04-10.55,2.22,0,4.43,.33,6.65,.97,2.22,.65,4.47,1.66,6.77,3.04l-8.03,14.11c-2.75-2.14-5.81-3.21-9.18-3.21Z"/><path d="M860.31,507.6c-2.87-2.87-4.3-6.73-4.3-11.58s2.22-9.06,6.65-12.62c4.43-3.56,9.83-5.33,16.17-5.33h7.8v-1.95c0-3.75-.76-6.31-2.29-7.69-1.53-1.38-4.4-2.06-8.6-2.06-1.76,0-3.84,.36-6.25,1.09-2.41,.73-5.1,1.85-8.09,3.38l-3.33-9.06c3.29-2.29,7.28-4.36,11.99-6.19,4.7-1.83,8.58-2.75,11.64-2.75,12,0,18.01,5.81,18.01,17.44v22.48c0,4.28,1.34,9.06,4.01,14.34l-12.16,5.16c-1.91-3.67-3.33-6.96-4.24-9.86-4.21,6.35-9.52,9.52-15.94,9.52-4.51,0-8.2-1.43-11.07-4.3Zm15.89-7.4c3.06,0,6.54-1.57,10.44-4.7v-7.68c-4.05-.92-7.34-1.38-9.86-1.38-4.82,0-7.23,2.14-7.23,6.42,0,2.22,.61,4,1.83,5.33,1.22,1.34,2.83,2.01,4.82,2.01Z"/><path d="M943.99,500.66c-5.96,7.5-11.13,11.24-15.49,11.24-5.43,0-9.88-2.22-13.36-6.65-3.48-4.43-5.22-10.13-5.22-17.09,0-9.56,2.66-17.62,7.97-24.2,5.31-6.58,11.83-9.86,19.56-9.86l6.42,.92v-2.18l-1.38-26.84,15.71-2.87-1.49,58.96v10.09c0,4.59,1.15,9.87,3.44,15.83l-12.39,5.16c-2.22-4.59-3.48-8.75-3.79-12.5Zm-21.22-18.47c0,4.89,.9,8.72,2.7,11.47,1.8,2.75,4.4,4.13,7.8,4.13s6.94-1.38,10.61-4.13v-24.78c-4.59-.92-7.99-1.38-10.21-1.38-3.44,0-6.12,1.22-8.03,3.67-1.91,2.45-2.87,6.12-2.87,11.01Z"/><path d="M991.93,500.2c2.22,0,4.55-.57,7-1.72,2.45-1.15,4.36-2.29,5.74-3.44l2.06-1.72,5.28,6.42c-.76,1.3-1.95,2.79-3.56,4.47-1.61,1.68-3.23,3.12-4.88,4.3-1.65,1.19-3.82,2.26-6.54,3.21-2.71,.96-5.53,1.43-8.43,1.43-6.19,0-11.24-2.35-15.14-7.05-3.9-4.7-5.85-10.76-5.85-18.18,0-9.33,2.71-17.51,8.14-24.55,5.43-7.03,11.78-10.55,19.04-10.55,5.58,0,9.92,1.57,13.02,4.7,3.1,3.14,4.65,7.53,4.65,13.19,0,3.37-.57,7.19-1.72,11.47l-2.29,2.41-28.68,2.64c1.3,8.64,5.35,12.96,12.16,12.96Zm0-35.56c-3.37,0-6.19,1.36-8.49,4.07-2.29,2.71-3.63,6.18-4.01,10.38l19.5-2.41c.23-1.76,.34-3.21,.34-4.36,0-5.12-2.45-7.69-7.34-7.69Z"/><path d="M1054.33,472.33c-.92-1.76-3.06-2.64-6.42-2.64s-7.19,1.34-11.47,4.01v8.37l1.26,26.96-15.37,2.87,1.38-27.87c-.31-10.25-1.15-19.42-2.52-27.53l13.88-2.98c.53,4.44,.92,8.76,1.15,12.96,1.15-1.53,2.45-3.04,3.9-4.53,1.45-1.49,3.75-3.17,6.88-5.05,3.13-1.87,6.31-2.81,9.52-2.81s5.92,1.03,8.14,3.1c2.22,2.07,3.63,4.9,4.24,8.49,6.35-7.72,12.77-11.58,19.27-11.58,4.05,0,7.26,1.36,9.64,4.07,2.37,2.71,3.56,6.41,3.56,11.07l-.69,12.85,1.26,27.53-15.49,2.87,1.38-29.59c0-5.28-.46-8.79-1.38-10.55-.92-1.76-3.02-2.64-6.31-2.64s-7,1.26-11.13,3.79l-.46,8.6,1.26,27.53-15.49,2.87,1.38-29.59c0-5.28-.46-8.79-1.38-10.55Z"/><path d="M1113.75,436.72c0-2.56,.99-4.86,2.98-6.88,1.99-2.03,4.28-3.04,6.88-3.04s4.59,.71,5.96,2.12c1.38,1.42,2.06,3.54,2.06,6.37s-.98,5.26-2.92,7.28c-1.95,2.03-4.21,3.04-6.77,3.04s-4.57-.84-6.02-2.52c-1.45-1.68-2.18-3.8-2.18-6.37Zm16.17,16.8l-1.38,28.56,1.26,26.96-15.37,2.87,1.38-27.87-1.26-27.64,15.37-2.87Z"/><path d="M1163.19,500.2c2.22,0,4.55-.57,7-1.72,2.45-1.15,4.36-2.29,5.74-3.44l2.06-1.72,5.28,6.42c-.76,1.3-1.95,2.79-3.56,4.47-1.61,1.68-3.23,3.12-4.88,4.3-1.65,1.19-3.82,2.26-6.54,3.21-2.71,.96-5.53,1.43-8.43,1.43-6.19,0-11.24-2.35-15.14-7.05-3.9-4.7-5.85-10.76-5.85-18.18,0-9.33,2.71-17.51,8.14-24.55,5.43-7.03,11.78-10.55,19.04-10.55,5.58,0,9.92,1.57,13.02,4.7,3.1,3.14,4.65,7.53,4.65,13.19,0,3.37-.57,7.19-1.72,11.47l-2.29,2.41-28.68,2.64c1.3,8.64,5.35,12.96,12.16,12.96Zm0-35.56c-3.37,0-6.19,1.36-8.49,4.07-2.29,2.71-3.63,6.18-4.01,10.38l19.5-2.41c.23-1.76,.34-3.21,.34-4.36,0-5.12-2.45-7.69-7.34-7.69Z"/><path d="M1241.76,453.98c5.12,0,9.29,2.22,12.5,6.65,3.21,4.44,4.82,10.13,4.82,17.09,0,10.02-2.62,18.22-7.86,24.6-5.24,6.39-12.03,9.58-20.36,9.58-3.83,0-10.25-.61-19.27-1.83l1.15-26.04-1.38-58.04,15.71-2.87-1.49,29.59v12.39c.84-1.22,1.87-2.52,3.1-3.9,1.22-1.38,3.13-2.92,5.74-4.65,2.6-1.72,5.05-2.58,7.34-2.58Zm-4.47,14.91c-3.52,0-7.42,1.07-11.7,3.21v9.98l.69,16.86c3.21,.38,6.23,.57,9.06,.57,7.34,0,11.01-5.1,11.01-15.31s-3.02-15.31-9.06-15.31Z"/><path d="M1289.25,500.2c2.22,0,4.55-.57,7-1.72,2.45-1.15,4.36-2.29,5.74-3.44l2.06-1.72,5.28,6.42c-.76,1.3-1.95,2.79-3.56,4.47-1.61,1.68-3.23,3.12-4.88,4.3-1.65,1.19-3.82,2.26-6.54,3.21-2.71,.96-5.53,1.43-8.43,1.43-6.19,0-11.24-2.35-15.14-7.05-3.9-4.7-5.85-10.76-5.85-18.18,0-9.33,2.71-17.51,8.14-24.55,5.43-7.03,11.78-10.55,19.04-10.55,5.58,0,9.92,1.57,13.02,4.7,3.1,3.14,4.65,7.53,4.65,13.19,0,3.37-.57,7.19-1.72,11.47l-2.29,2.41-28.68,2.64c1.3,8.64,5.35,12.96,12.16,12.96Zm0-35.56c-3.37,0-6.19,1.36-8.49,4.07-2.29,2.71-3.63,6.18-4.01,10.38l19.5-2.41c.23-1.76,.34-3.21,.34-4.36,0-5.12-2.45-7.69-7.34-7.69Z"/><path d="M1340.4,500.2c2.22,0,4.55-.57,7-1.72,2.45-1.15,4.36-2.29,5.74-3.44l2.06-1.72,5.28,6.42c-.76,1.3-1.95,2.79-3.56,4.47-1.61,1.68-3.23,3.12-4.88,4.3-1.65,1.19-3.82,2.26-6.54,3.21-2.71,.96-5.53,1.43-8.43,1.43-6.19,0-11.24-2.35-15.14-7.05-3.9-4.7-5.85-10.76-5.85-18.18,0-9.33,2.71-17.51,8.14-24.55,5.43-7.03,11.78-10.55,19.04-10.55,5.58,0,9.92,1.57,13.02,4.7,3.1,3.14,4.65,7.53,4.65,13.19,0,3.37-.57,7.19-1.72,11.47l-2.29,2.41-28.68,2.64c1.3,8.64,5.35,12.96,12.16,12.96Zm0-35.56c-3.37,0-6.19,1.36-8.49,4.07-2.29,2.71-3.63,6.18-4.01,10.38l19.5-2.41c.23-1.76,.34-3.21,.34-4.36,0-5.12-2.45-7.69-7.34-7.69Z"/><path d="M1386.63,423.12l-1.49,58.96,1.26,26.96-15.48,2.87,1.38-27.87-1.38-58.04,15.71-2.87Z"/><path d="M1430.22,500.66c-5.96,7.5-11.13,11.24-15.49,11.24-5.43,0-9.88-2.22-13.36-6.65-3.48-4.43-5.22-10.13-5.22-17.09,0-9.56,2.66-17.62,7.97-24.2,5.31-6.58,11.83-9.86,19.56-9.86l6.42,.92v-2.18l-1.38-26.84,15.71-2.87-1.49,58.96v10.09c0,4.59,1.15,9.87,3.44,15.83l-12.39,5.16c-2.22-4.59-3.48-8.75-3.79-12.5Zm-21.22-18.47c0,4.89,.9,8.72,2.7,11.47,1.8,2.75,4.4,4.13,7.8,4.13s6.94-1.38,10.61-4.13v-24.78c-4.59-.92-7.99-1.38-10.21-1.38-3.44,0-6.12,1.22-8.03,3.67-1.91,2.45-2.87,6.12-2.87,11.01Z"/><path d="M1478.16,500.2c2.22,0,4.55-.57,7-1.72,2.45-1.15,4.36-2.29,5.74-3.44l2.06-1.72,5.28,6.42c-.76,1.3-1.95,2.79-3.56,4.47-1.61,1.68-3.23,3.12-4.88,4.3-1.65,1.19-3.82,2.26-6.54,3.21-2.71,.96-5.53,1.43-8.43,1.43-6.19,0-11.24-2.35-15.14-7.05-3.9-4.7-5.85-10.76-5.85-18.18,0-9.33,2.71-17.51,8.14-24.55,5.43-7.03,11.78-10.55,19.04-10.55,5.58,0,9.92,1.57,13.02,4.7,3.1,3.14,4.65,7.53,4.65,13.19,0,3.37-.57,7.19-1.72,11.47l-2.29,2.41-28.68,2.64c1.3,8.64,5.35,12.96,12.16,12.96Zm0-35.56c-3.37,0-6.19,1.36-8.49,4.07-2.29,2.71-3.63,6.18-4.01,10.38l19.5-2.41c.23-1.76,.34-3.21,.34-4.36,0-5.12-2.45-7.69-7.34-7.69Z"/><path d="M1540.56,472.33c-.92-1.76-3.06-2.64-6.42-2.64s-7.19,1.34-11.47,4.01v8.37l1.26,26.96-15.37,2.87,1.38-27.87c-.31-10.25-1.15-19.42-2.52-27.53l13.88-2.98c.53,4.44,.92,8.76,1.15,12.96,1.15-1.53,2.45-3.04,3.9-4.53,1.45-1.49,3.75-3.17,6.88-5.05,3.13-1.87,6.44-2.81,9.92-2.81s6.4,1.36,8.77,4.07c2.37,2.71,3.56,6.41,3.56,11.07l-.69,12.85,1.26,27.53-15.49,2.87,1.38-29.59c0-5.28-.46-8.79-1.38-10.55Z"/><path d="M1598.95,500.66c-5.96,7.5-11.13,11.24-15.49,11.24-5.43,0-9.88-2.22-13.36-6.65-3.48-4.43-5.22-10.13-5.22-17.09,0-9.56,2.66-17.62,7.97-24.2,5.31-6.58,11.83-9.86,19.56-9.86l6.42,.92v-2.18l-1.38-26.84,15.71-2.87-1.49,58.96v10.09c0,4.59,1.15,9.87,3.44,15.83l-12.39,5.16c-2.22-4.59-3.48-8.75-3.79-12.5Zm-21.22-18.47c0,4.89,.9,8.72,2.7,11.47,1.8,2.75,4.4,4.13,7.8,4.13s6.94-1.38,10.61-4.13v-24.78c-4.59-.92-7.99-1.38-10.21-1.38-3.44,0-6.12,1.22-8.03,3.67-1.91,2.45-2.87,6.12-2.87,11.01Z"/><path d="M1646.89,500.2c2.22,0,4.55-.57,7-1.72,2.45-1.15,4.36-2.29,5.74-3.44l2.06-1.72,5.28,6.42c-.76,1.3-1.95,2.79-3.56,4.47-1.61,1.68-3.23,3.12-4.88,4.3-1.65,1.19-3.82,2.26-6.54,3.21-2.71,.96-5.53,1.43-8.43,1.43-6.19,0-11.24-2.35-15.14-7.05-3.9-4.7-5.85-10.76-5.85-18.18,0-9.33,2.71-17.51,8.14-24.55,5.43-7.03,11.78-10.55,19.04-10.55,5.58,0,9.92,1.57,13.02,4.7,3.1,3.14,4.65,7.53,4.65,13.19,0,3.37-.57,7.19-1.72,11.47l-2.29,2.41-28.68,2.64c1.3,8.64,5.35,12.96,12.16,12.96Zm0-35.56c-3.37,0-6.19,1.36-8.49,4.07-2.29,2.71-3.63,6.18-4.01,10.38l19.5-2.41c.23-1.76,.34-3.21,.34-4.36,0-5.12-2.45-7.69-7.34-7.69Z"/></g><g class="c"><path d="M391.94,779.37c-11.68,0-23.35-1.28-35.03-3.84l13.67-51.26c9.4,3.14,18.51,4.7,27.34,4.7,17.37,0,26.06-14.38,26.06-43.14l-5.98-196.93,60.66-10.68-5.98,192.66c0,31.04-7.55,56.89-22.64,77.53-15.1,20.65-34.46,30.97-58.1,30.97Z"/></g><g class="c"><path d="M617.49,400.1c18.22,0,33.53,7.98,45.92,23.92,12.39,15.95,18.58,37.45,18.58,64.5,0,37.88-9.76,68.56-29.26,92.06-19.51,23.5-43.79,35.24-72.83,35.24-5.98,0-12.68-.43-20.08-1.28l2.14,81.59-58.52,10.68,5.55-194.79h.43c-1.14-38.16-4.27-72.33-9.4-102.52l51.69-11.11c1.71,15.1,3.13,30.05,4.27,44.85,.57-1.42,3.48-5.34,8.76-11.75,5.27-6.41,13.03-13.24,23.28-20.5,10.25-7.26,20.08-10.89,29.48-10.89Zm-16.66,55.53c-15.1,0-29.76,4.13-44,12.39v36.74l1.71,61.09c15.38,2.56,27.05,3.84,35.03,3.84,27.34,0,41.01-19.01,41.01-57.03s-11.25-57.03-33.75-57.03Z"/></g><path class="d" d="M718.78,675.44l1.83,18.91s-31.41,53.37-133.28,73.2l-1.83-16.16c12.2-2.44,25.62-6.1,39.95-11.59,44.53-17.08,75.33-44.53,93.33-64.35Z"/><path d="M365.3,676.05c-3.35,.61-7.01,1.22-10.37,1.83-3.35-4.27-7.01-8.84-10.37-13.11-3.96-5.79-8.54-13.42-13.42-22.57-1.22-2.13-6.4-12.5-12.2-27.45-3.35-8.54-7.93-21.35-11.28-38.43-2.13-10.67-4.27-25.01-4.27-42.09,0,1.52-.3-32.63,4.27-58.56,4.27-23.48,12.2-40.26,18.6-53.37,23.79-48.8,57.95-77.16,65.88-83.57,41.17-33.24,82.65-43.92,98.51-47.58,98.51-21.35,175.37,29.89,185.43,36.6,52.46,34.77,72.89,79.91,72.89,79.91l-10.67,1.22s-65.27-116.51-219.29-101.26c-154.02,15.25-191.23,155.85-191.23,155.85,0,0-28.36,74.72,6.1,157.98,3.05,7.01,6.4,14.64,10.98,22.57,6.41,13.11,13.73,23.48,20.43,32.02Z"/><g class="c"><path d="M777.78,650.6l-21.57-31.77v.8l1.26,26.96-15.48,2.87,1.38-27.87-1.38-58.04,15.71-2.87-1.49,55.4,22.94-25.12,10.78,7.34-20.07,18.81,20.99,24.78-13.08,8.72Z"/><path d="M811.04,649.45c-4.13,0-7.48-1.36-10.04-4.07-2.56-2.71-3.84-6.29-3.84-10.72l.69-13.19-1.26-27.53,15.37-2.87-1.49,34.87c0,3.29,.59,5.7,1.78,7.23,1.18,1.53,3.08,2.29,5.68,2.29s6.19-1.3,10.78-3.9v-6.88l-1.26-30.17,15.49-2.87-1.38,28.68,.11,9.41c0,4.89,1.26,9.83,3.79,14.8l-11.93,5.28c-2.52-4.97-4.05-8.95-4.59-11.93-6.88,7.72-12.85,11.58-17.89,11.58Z"/><path d="M887.67,609.88c-.92-1.76-3.06-2.64-6.42-2.64s-7.19,1.34-11.47,4.01v8.37l1.26,26.96-15.37,2.87,1.38-27.87c-.31-10.25-1.15-19.42-2.52-27.53l13.88-2.98c.53,4.44,.92,8.76,1.15,12.96,1.15-1.53,2.45-3.04,3.9-4.53,1.45-1.49,3.75-3.17,6.88-5.05,3.13-1.87,6.44-2.81,9.92-2.81s6.4,1.36,8.77,4.07c2.37,2.71,3.56,6.41,3.56,11.07l-.69,12.85,1.26,27.53-15.49,2.87,1.38-29.59c0-5.28-.46-8.79-1.38-10.55Z"/><path d="M933.09,638.79c3.97,0,5.96-1.76,5.96-5.28,0-1.22-.86-2.37-2.58-3.44-1.72-1.07-3.83-2.14-6.31-3.21-2.49-1.07-4.97-2.27-7.46-3.61-2.49-1.34-4.59-3.19-6.31-5.56-1.72-2.37-2.58-5.08-2.58-8.14,0-5.12,2.25-9.6,6.77-13.42,4.51-3.82,9.71-5.74,15.6-5.74,2.75,0,5.45,.33,8.09,.97,2.64,.65,5.18,1.66,7.63,3.04l-7.69,13.99c-.54-.46-1.22-1.03-2.06-1.72-.84-.69-2.43-1.59-4.76-2.7-2.33-1.11-4.4-1.66-6.19-1.66s-3.17,.4-4.13,1.2c-.96,.8-1.43,1.91-1.43,3.33s1.32,2.83,3.96,4.24c2.64,1.42,5.52,2.72,8.66,3.9,3.13,1.19,6.02,3.14,8.66,5.85,2.64,2.72,3.96,5.95,3.96,9.69,0,5.35-2.2,10.06-6.6,14.11-4.4,4.05-9.46,6.08-15.2,6.08-3.67,0-7.09-.8-10.27-2.41-3.17-1.61-5.45-3.21-6.83-4.82l-2.06-2.41,9.06-10.55c.46,.61,1.11,1.38,1.95,2.29,.84,.92,2.5,2.14,4.99,3.67,2.48,1.53,4.88,2.29,7.17,2.29Z"/><path d="M965.44,593.94v-12.5l15.49-2.98-1.49,15.49h13.88l-1.26,9.41h-13.08l-.57,23.97c0,3.59,.34,5.98,1.03,7.17,.69,1.19,1.95,1.78,3.79,1.78s4.28-.42,7.34-1.26l.69,8.14c-5.05,4.21-9.48,6.31-13.31,6.31s-6.96-1.39-9.41-4.19c-2.45-2.79-3.67-6.44-3.67-10.96l.69-12.85-.12-18.12h-7.91l1.26-9.41h6.65Z"/><path d="M1022.33,637.75c2.22,0,4.55-.57,7-1.72,2.45-1.15,4.36-2.29,5.74-3.44l2.06-1.72,5.28,6.42c-.76,1.3-1.95,2.79-3.56,4.47-1.61,1.68-3.23,3.12-4.88,4.3-1.65,1.19-3.82,2.26-6.54,3.21-2.71,.96-5.53,1.43-8.43,1.43-6.19,0-11.24-2.35-15.14-7.05-3.9-4.7-5.85-10.76-5.85-18.18,0-9.33,2.71-17.51,8.14-24.55,5.43-7.03,11.78-10.55,19.04-10.55,5.58,0,9.92,1.57,13.02,4.7,3.1,3.14,4.65,7.53,4.65,13.19,0,3.37-.57,7.19-1.72,11.47l-2.29,2.41-28.68,2.64c1.3,8.64,5.35,12.96,12.16,12.96Zm0-35.56c-3.37,0-6.19,1.36-8.49,4.07-2.29,2.71-3.63,6.18-4.01,10.38l19.5-2.41c.23-1.76,.34-3.21,.34-4.36,0-5.12-2.45-7.69-7.34-7.69Z"/><path d="M1084.73,609.88c-.92-1.76-3.06-2.64-6.42-2.64s-7.19,1.34-11.47,4.01v8.37l1.26,26.96-15.37,2.87,1.38-27.87c-.31-10.25-1.15-19.42-2.52-27.53l13.88-2.98c.53,4.44,.92,8.76,1.15,12.96,1.15-1.53,2.45-3.04,3.9-4.53,1.45-1.49,3.75-3.17,6.88-5.05,3.13-1.87,6.44-2.81,9.92-2.81s6.4,1.36,8.77,4.07c2.37,2.71,3.56,6.41,3.56,11.07l-.69,12.85,1.26,27.53-15.49,2.87,1.38-29.59c0-5.28-.46-8.79-1.38-10.55Z"/><path d="M1157.8,635.12h1.38l5.74-19.73,12.04-45.77,13.88,2.06-13.65,45.54-8.95,31.31-21.22,1.49-8.14-30.63-13.31-46.92,16.29-2.87,10.44,44.28,5.51,21.22Z"/><path d="M1198.4,574.26c0-2.56,.99-4.86,2.98-6.88,1.99-2.03,4.28-3.04,6.88-3.04s4.59,.71,5.96,2.12c1.38,1.42,2.06,3.54,2.06,6.37s-.98,5.26-2.92,7.28c-1.95,2.03-4.21,3.04-6.77,3.04s-4.57-.84-6.02-2.52c-1.45-1.68-2.18-3.8-2.18-6.37Zm16.17,16.8l-1.38,28.56,1.26,26.96-15.37,2.87,1.38-27.87-1.26-27.64,15.37-2.87Z"/><path d="M1242.91,560.67l-1.49,58.96,1.26,26.96-15.48,2.87,1.38-27.87-1.38-58.04,15.71-2.87Z"/><path d="M1275.71,635.12h1.49l3.79-15.71,6.19-28.33,14.22,1.72-8.6,28.45-7.23,26.84-19.61,1.72-6.77-27.87-8.26-27.87,15.6-2.87,4.93,25.24,4.24,18.7Z"/><path d="M1313.45,600.59c5.28-6.81,11.45-10.21,18.53-10.21s12.58,2.29,16.52,6.88c3.94,4.59,5.91,10.67,5.91,18.24,0,10.09-2.54,18.49-7.63,25.18-5.09,6.69-11.49,10.04-19.21,10.04-6.35,0-11.61-2.39-15.77-7.17-4.17-4.78-6.25-10.8-6.25-18.07,0-9.79,2.64-18.08,7.91-24.89Zm28.1,20.88c0-11.09-3.79-16.63-11.36-16.63s-11.81,5.2-11.81,15.6c0,5.43,1.11,9.67,3.33,12.73,2.22,3.06,5.14,4.59,8.78,4.59s6.38-1.39,8.26-4.19c1.87-2.79,2.81-6.83,2.81-12.1Z"/><path d="M1368.73,600.59c5.28-6.81,11.45-10.21,18.53-10.21s12.58,2.29,16.52,6.88c3.94,4.59,5.91,10.67,5.91,18.24,0,10.09-2.54,18.49-7.63,25.18-5.09,6.69-11.49,10.04-19.21,10.04-6.35,0-11.61-2.39-15.77-7.17-4.17-4.78-6.25-10.8-6.25-18.07,0-9.79,2.64-18.08,7.91-24.89Zm28.1,20.88c0-11.09-3.79-16.63-11.36-16.63s-11.81,5.2-11.81,15.6c0,5.43,1.11,9.67,3.33,12.73,2.22,3.06,5.14,4.59,8.78,4.59s6.38-1.39,8.26-4.19c1.87-2.79,2.81-6.83,2.81-12.1Z"/><path d="M1418.29,594.05l13.88-2.98c.69,5.89,1.15,11.47,1.38,16.75,6.96-10.78,13.5-16.17,19.61-16.17l-1.26,17.89c-4.44,0-7.93,.4-10.5,1.21-2.56,.8-5.18,2.39-7.86,4.76v4.13l1.26,26.96-15.37,2.87,1.38-27.87c-.31-10.25-1.15-19.42-2.52-27.53Z"/><path d="M1490.67,638.21c-5.96,7.5-11.13,11.24-15.49,11.24-5.43,0-9.88-2.22-13.36-6.65-3.48-4.43-5.22-10.13-5.22-17.09,0-9.56,2.66-17.62,7.97-24.2,5.31-6.58,11.83-9.86,19.56-9.86l6.42,.92v-2.18l-1.38-26.84,15.71-2.87-1.49,58.96v10.09c0,4.59,1.15,9.87,3.44,15.83l-12.39,5.16c-2.22-4.59-3.48-8.75-3.79-12.5Zm-21.22-18.47c0,4.89,.9,8.72,2.7,11.47,1.8,2.75,4.4,4.13,7.8,4.13s6.94-1.38,10.61-4.13v-24.78c-4.59-.92-7.99-1.38-10.21-1.38-3.44,0-6.12,1.22-8.03,3.67-1.91,2.45-2.87,6.12-2.87,11.01Z"/><path d="M1538.61,637.75c2.22,0,4.55-.57,7-1.72,2.45-1.15,4.36-2.29,5.74-3.44l2.06-1.72,5.28,6.42c-.76,1.3-1.95,2.79-3.56,4.47-1.61,1.68-3.23,3.12-4.88,4.3-1.65,1.19-3.82,2.26-6.54,3.21-2.71,.96-5.53,1.43-8.43,1.43-6.19,0-11.24-2.35-15.14-7.05-3.9-4.7-5.85-10.76-5.85-18.18,0-9.33,2.71-17.51,8.14-24.55,5.43-7.03,11.78-10.55,19.04-10.55,5.58,0,9.92,1.57,13.02,4.7,3.1,3.14,4.65,7.53,4.65,13.19,0,3.37-.57,7.19-1.72,11.47l-2.29,2.41-28.68,2.64c1.3,8.64,5.35,12.96,12.16,12.96Zm0-35.56c-3.37,0-6.19,1.36-8.49,4.07-2.29,2.71-3.63,6.18-4.01,10.38l19.5-2.41c.23-1.76,.34-3.21,.34-4.36,0-5.12-2.45-7.69-7.34-7.69Z"/></g></g></svg>