<?xml version="1.0" encoding="utf-8"?>
<!-- Generator: Adobe Illustrator 26.1.0, SVG Export Plug-In . SVG Version: 6.00 Build 0)  -->
<svg version="1.1" id="Laag_1" xmlns="http://www.w3.org/2000/svg" xmlns:xlink="http://www.w3.org/1999/xlink" x="0px" y="0px"
	 viewBox="0 0 1920 1080" style="enable-background:new 0 0 1920 1080;" xml:space="preserve">
<style type="text/css">
	.st0{font-family:'Acme-Regular';}
	.st1{font-size:114.7054px;}
	.st2{font-size:427.179px;}
	.st3{fill:#020202;}
</style>
<text transform="matrix(1 0 0 1 735.3397 511.9048)" class="st0 st1">Academie beeldende</text>
<text transform="matrix(1 0 0 1 356.9153 775.103)" class="st0 st2">J</text>
<text transform="matrix(1 0 0 1 478.6546 615.8247)" class="st0 st2">p</text>
<path class="st3" d="M718.8,675.4l1.8,18.9c0,0-31.4,53.4-133.3,73.2l-1.8-16.2c12.2-2.4,25.6-6.1,40-11.6
	C670,722.7,700.8,695.3,718.8,675.4z"/>
<path d="M365.3,676.1c-3.4,0.6-7,1.2-10.4,1.8c-3.4-4.3-7-8.8-10.4-13.1c-4-5.8-8.5-13.4-13.4-22.6c-1.2-2.1-6.4-12.5-12.2-27.4
	c-3.4-8.5-7.9-21.3-11.3-38.4c-2.1-10.7-4.3-25-4.3-42.1c0,1.5-0.3-32.6,4.3-58.6c4.3-23.5,12.2-40.3,18.6-53.4
	c23.8-48.8,57.9-77.2,65.9-83.6c41.2-33.2,82.7-43.9,98.5-47.6c98.5-21.3,175.4,29.9,185.4,36.6c52.5,34.8,72.9,79.9,72.9,79.9
	l-10.7,1.2c0,0-65.3-116.5-219.3-101.3S327.8,463.5,327.8,463.5s-28.4,74.7,6.1,158c3,7,6.4,14.6,11,22.6
	C351.3,657.1,358.6,667.5,365.3,676.1z"/>
<text transform="matrix(1 0 0 1 735.3397 649.4546)" class="st0 st1">kunsten Vilvoorde</text>
</svg>
