<?xml version="1.0" encoding="utf-8"?>
<!-- Generator: Adobe Illustrator 26.1.0, SVG Export Plug-In . SVG Version: 6.00 Build 0)  -->
<svg version="1.1" id="Laag_1" xmlns="http://www.w3.org/2000/svg" xmlns:xlink="http://www.w3.org/1999/xlink" x="0px" y="0px"
	 viewBox="0 0 1920 1080" style="enable-background:new 0 0 1920 1080;" xml:space="preserve">
<style type="text/css">
	.st0{fill:#FFFFFF;}
	.st1{font-family:'Acme-Regular';}
	.st2{font-size:140.0638px;}
	.st3{fill:none;}
	.st4{font-size:37.6097px;}
	.st5{fill:#00909B;}
	.st6{fill:#020202;}
</style>
<path d="M781.5,498.4c-2.3,3.3-5.5,8.9-6.4,16.3c-0.8,5.8,0.3,10.3,2.2,18.6c0.6,2.8,1.8,8,4.3,13.9c0.7,1.6,1.7,4,2.8,6.4
	c2.3,5,2.9,6.1,3.6,7.9c2.5,5.8,3.5,10.8,3.9,12.9c0.6,3.3,1.6,9.5,0.5,17.4c-1.1,8.3-4,14-4.7,15.5c-2.4,4.6-4.8,7.4-5.5,8.2
	c-3.1,3.4-6,5.2-6.9,5.8c-0.9,0.5-2,1.2-3.5,1.8c0,0-0.6,0.2-3.6,1.1c-2,0.6-6.9,1.7-12.7,0c-6.7-2-10.3-6.5-11.5-8
	c-5.2-6.6-5.3-13.9-5.3-16.4c0-5.3,1.6-9.5,2.7-11.8c1.4-2.9,4-7.3,8.4-11.5c3.4-3.2,6.9-5.3,9.5-6.6c0.3-0.1,0.6-0.1,0.9-0.2
	c0.4-0.1,0.5,0.1,0.5,0.1c0.2,0.2,0.1,0.7-0.4,1.3c-2.7,2-11.1,7.5-12.8,17.8c-1.6,9.8-2.3,14.7,2,23.6c4.3,9,14.4,8.9,14.4,8.9
	s7.2,0.2,12.2-6.5c5-6.6,6.5-16.7,6.5-16.7c0.4-11.4-1.4-19.7-3.2-25.2c-0.8-2.3-0.9-2.3-2.9-8c0,0,0,0,0-0.1
	c-1.7-5.3-3-8.6-3.8-10.8c-0.7-2-1.7-5-2.6-8.8c-1.4-4.9-2.1-11.4-2.3-19.1c-0.1-4.5,0.3-7.3,1-9.2c0,0,0.1-0.2,2.6-7.7
	c-2.6,0.8-4.5,0.7-5.8,0.4c-2.6-0.6-5.6-2.6-5.7-2.7c0.2-0.7,0.6-1.9,1.7-3.2c1.3-1.4,2.8-2,3.5-2.2
	C765,501.5,770.8,508,781.5,498.4z"/>
<rect x="852.6" y="481" transform="matrix(0.9932 -0.1163 0.1163 0.9932 -55.4866 104.8415)" class="st0" width="35.4" height="93.4"/>
<rect x="755" y="482.8" transform="matrix(0.9932 -0.1163 0.1163 0.9932 -55.9381 97.0754)" class="st0" width="97.2" height="89.7"/>
<rect x="735.3" y="565.4" transform="matrix(0.9932 -0.1163 0.1163 0.9932 -64.5452 94.1997)" class="st0" width="78.7" height="69.1"/>
<text transform="matrix(1 0 0 1 738.6509 601.3768)" class="st1 st2">J</text>
<text transform="matrix(1 0 0 1 778.567 549.1522)" class="st1 st2">p</text>
<rect x="862.7" y="486" class="st3" width="363.2" height="143.3"/>
<text id="Academie_beeldende_kunsten_vilvoorden" transform="matrix(1 0 0 1 862.7291 515.079)"><tspan x="0" y="0" class="st1 st4">Academie beeldende</tspan><tspan x="0" y="45.1" class="st1 st4">kunsten Vilvoorde</tspan></text>
<path class="st5" d="M3701.1,1752.4c0,38.5-31.2,69.7-69.7,69.7c-46.1,0-78-51.7-69.7-69.7c5.8-12.6,29-3.8,47.8-23.1
	c18.4-18.8,9.7-41,21.9-46.7C3649.2,1674.4,3701.1,1706.3,3701.1,1752.4z"/>
<path class="st6" d="M857.3,568.7l0.6,6.2c0,0-10.3,17.5-43.7,24l-0.6-5.3c4-0.8,8.4-2,13.1-3.8
	C841.3,584.2,851.4,575.2,857.3,568.7z"/>
<path d="M741.4,568.9c-1.1,0.2-2.3,0.4-3.4,0.6c-1.1-1.4-2.3-2.9-3.4-4.3c-1.3-1.9-2.8-4.4-4.4-7.4c-0.4-0.7-2.1-4.1-4-9
	c-1.1-2.8-2.6-7-3.7-12.6c-0.7-3.5-1.4-8.2-1.4-13.8c0,0.5-0.1-10.7,1.4-19.2c1.4-7.7,4-13.2,6.1-17.5c7.8-16,19-25.3,21.6-27.4
	c13.5-10.9,27.1-14.4,32.3-15.6c32.3-7,57.5,9.8,60.8,12c17.2,11.4,23.9,26.2,23.9,26.2l-3.5,0.4c0,0-21.4-38.2-71.9-33.2
	c-50.5,5-62.7,51.1-62.7,51.1s-9.3,24.5,2,51.8c1,2.3,2.1,4.8,3.6,7.4C736.8,562.7,739.2,566.1,741.4,568.9z"/>
</svg>
