<svg xmlns="http://www.w3.org/2000/svg" viewBox="0 0 465.98 413.67"><defs><style>.cls-1{fill:#009d3d;}.cls-2{fill:#007d8e;}.cls-3{fill:#a2195b;}.cls-4{fill:#888;}.cls-5{fill:#006d82;}.cls-6{fill:#e95021;}.cls-7{fill:#c7ce42;}.cls-8{fill:#f2ba07;}.cls-9{fill:#0083cb;}.cls-10{fill:#e30614;}.cls-11{fill:#84bc3c;}.cls-12{fill:#d12b58;}</style></defs><g id="Sov_Light" data-name="Sov Light"><circle class="cls-1" cx="72.88" cy="17.98" r="17.98"/><circle class="cls-2" cx="419.76" cy="338.34" r="46.21"/><path class="cls-3" d="M111.83,473.06A85.1,85.1,0,0,1,107.48,500H0V392a85.33,85.33,0,0,1,111.83,81.06Z" transform="translate(0 -86.33)"/><path class="cls-4" d="M287.23,340.62a3.18,3.18,0,0,0,1.22-1.27,3.8,3.8,0,0,0,.47-1.9,3.74,3.74,0,0,0-.47-1.9,3.19,3.19,0,0,0-1.22-1.25,3.62,3.62,0,0,0-3.46,0,3.28,3.28,0,0,0-1.23,1.25,3.74,3.74,0,0,0-.46,1.9,3.79,3.79,0,0,0,.46,1.9,3.27,3.27,0,0,0,1.23,1.27,3.62,3.62,0,0,0,3.46,0Z" transform="translate(0 -86.33)"/><path class="cls-4" d="M243.22,310.29a3.62,3.62,0,0,0-3.46,0,3.23,3.23,0,0,0-1.22,1.24,3.78,3.78,0,0,0-.47,1.91,3.82,3.82,0,0,0,.47,1.9,3.24,3.24,0,0,0,1.22,1.27,3.62,3.62,0,0,0,3.46,0,3.34,3.34,0,0,0,1.23-1.27,3.82,3.82,0,0,0,.46-1.9,3.78,3.78,0,0,0-.46-1.91A3.33,3.33,0,0,0,243.22,310.29Z" transform="translate(0 -86.33)"/><path class="cls-4" d="M197.51,334.3a3.64,3.64,0,0,0-3.47,0,3.15,3.15,0,0,0-1.23,1.25,3.84,3.84,0,0,0-.45,1.9,3.9,3.9,0,0,0,.45,1.9,3.14,3.14,0,0,0,1.23,1.27,3.34,3.34,0,0,0,1.72.44,3.37,3.37,0,0,0,1.75-.44,3.25,3.25,0,0,0,1.22-1.27,3.9,3.9,0,0,0,.45-1.9,3.84,3.84,0,0,0-.45-1.9A3.26,3.26,0,0,0,197.51,334.3Z" transform="translate(0 -86.33)"/><path class="cls-4" d="M276.15,358.16a3.4,3.4,0,0,0-1.72-.42,3.54,3.54,0,0,0-1.73.42,2.86,2.86,0,0,0-1.17,1.19,3.64,3.64,0,0,0-.34,1.16h6.45a3.24,3.24,0,0,0-.34-1.17A3,3,0,0,0,276.15,358.16Z" transform="translate(0 -86.33)"/><path class="cls-4" d="M212.32,335.35a3,3,0,0,0-1.15-1.18,3.37,3.37,0,0,0-1.72-.42,3.54,3.54,0,0,0-1.73.42,2.82,2.82,0,0,0-1.17,1.2,3.56,3.56,0,0,0-.34,1.16h6.46A3.17,3.17,0,0,0,212.32,335.35Z" transform="translate(0 -86.33)"/><path class="cls-4" d="M225.55,314.7a1.43,1.43,0,0,0-.48,1.1,1.34,1.34,0,0,0,.58,1.14,2.61,2.61,0,0,0,1.61.43,3.48,3.48,0,0,0,1.77-.45,2.64,2.64,0,0,0,1.15-1.33v-1.34h-2.79A2.77,2.77,0,0,0,225.55,314.7Z" transform="translate(0 -86.33)"/><path class="cls-4" d="M200,314.7a1.43,1.43,0,0,0-.49,1.1,1.36,1.36,0,0,0,.58,1.14,2.66,2.66,0,0,0,1.62.43,3.48,3.48,0,0,0,1.77-.45,2.68,2.68,0,0,0,1.15-1.33v-1.34h-2.79A2.75,2.75,0,0,0,200,314.7Z" transform="translate(0 -86.33)"/><path class="cls-4" d="M244.34,334.3a3.45,3.45,0,0,0-1.73-.44,3.4,3.4,0,0,0-1.73.44,3.28,3.28,0,0,0-1.23,1.25,3.74,3.74,0,0,0-.46,1.9,3.79,3.79,0,0,0,.46,1.9,3.26,3.26,0,0,0,3,1.71,3.35,3.35,0,0,0,1.73-.44,3.25,3.25,0,0,0,1.22-1.27,3.79,3.79,0,0,0,.46-1.9,3.74,3.74,0,0,0-.46-1.9A3.26,3.26,0,0,0,244.34,334.3Z" transform="translate(0 -86.33)"/><path class="cls-4" d="M250.58,272.37h0a23.21,23.21,0,0,0,16.25-39.61,22.74,22.74,0,0,0-16.25-6.92h0a22.75,22.75,0,0,0-16.27,6.88,23.21,23.21,0,0,0,16.27,39.65Z" transform="translate(0 -86.33)"/><path class="cls-4" d="M250.53,100.62A146.07,146.07,0,1,0,396.6,246.69,146.07,146.07,0,0,0,250.53,100.62Zm36.68,202.43a1.72,1.72,0,0,1,1.24-.47,1.76,1.76,0,0,1,1.23.44,1.43,1.43,0,0,1,.49,1.13,1.59,1.59,0,0,1-.48,1.17,1.66,1.66,0,0,1-1.24.48,1.68,1.68,0,0,1-1.24-.47,1.55,1.55,0,0,1-.48-1.16A1.53,1.53,0,0,1,287.21,303.05Zm2.57,4.65v11.48h-2.67V307.7Zm-64-83.42a34.72,34.72,0,0,1,24.81-10.44h.07a34.66,34.66,0,0,1,24.78,10.5,35.21,35.21,0,0,1-24.78,60h-.07a35.22,35.22,0,0,1-24.81-60.09Zm54.54,86.38a2.45,2.45,0,0,0-1.92-.75,3.06,3.06,0,0,0-1.56.39,2.63,2.63,0,0,0-1.06,1.15,4.29,4.29,0,0,0-.37,1.9v5.83h-2.67v-6.24a3.29,3.29,0,0,0-.68-2.28,2.45,2.45,0,0,0-1.92-.75,3.06,3.06,0,0,0-1.56.39,2.61,2.61,0,0,0-1.05,1.15,4.29,4.29,0,0,0-.38,1.9v5.83h-2.66V307.7H267v1.45a4.25,4.25,0,0,1,1.22-1,5.28,5.28,0,0,1,2.55-.6,4.89,4.89,0,0,1,2.79.79,3.58,3.58,0,0,1,1.07,1.18,4.64,4.64,0,0,1,1.3-1.18,5.55,5.55,0,0,1,3-.79,5.44,5.44,0,0,1,2.44.53,3.82,3.82,0,0,1,1.67,1.66,6,6,0,0,1,.6,2.86v6.58H281v-6.24A3.34,3.34,0,0,0,280.31,310.66Zm-26,28.75a3.11,3.11,0,0,0,1.33,1.23,4.24,4.24,0,0,0,2,.44,4.42,4.42,0,0,0,1.74-.32,4.09,4.09,0,0,0,1.37-.94l1.47,1.67a5.24,5.24,0,0,1-2,1.38,7.24,7.24,0,0,1-2.68.47,7,7,0,0,1-3.34-.76,5.53,5.53,0,0,1-2.22-2.09,5.85,5.85,0,0,1-.78-3,6,6,0,0,1,.76-3,5.57,5.57,0,0,1,2.11-2.09,6.17,6.17,0,0,1,3.06-.76,6,6,0,0,1,3,.74,5.44,5.44,0,0,1,2.07,2.08,6.34,6.34,0,0,1,.75,3.16c0,.1,0,.22,0,.37s0,.29,0,.4h-9A3.43,3.43,0,0,0,254.33,339.41Zm-1.11-24a3.16,3.16,0,0,0,1.32,1.24,4.4,4.4,0,0,0,2,.44,4.54,4.54,0,0,0,1.74-.32,4.06,4.06,0,0,0,1.38-.95l1.46,1.68a5.16,5.16,0,0,1-2,1.38,7.79,7.79,0,0,1-6-.29,5.57,5.57,0,0,1-2.21-2.09,5.88,5.88,0,0,1-.78-3,6,6,0,0,1,.76-3.05,5.59,5.59,0,0,1,2.1-2.08,6.11,6.11,0,0,1,3.07-.76,5.92,5.92,0,0,1,3,.74,5.32,5.32,0,0,1,2.06,2.07,6.34,6.34,0,0,1,.75,3.16c0,.1,0,.23,0,.38a2.41,2.41,0,0,1,0,.4h-9A3.38,3.38,0,0,0,253.22,315.39Zm-8.3,27.32a5.32,5.32,0,0,1-2.64.63,6,6,0,0,1-3-.73,5.26,5.26,0,0,1-2.08-2.05,6.8,6.8,0,0,1,0-6.21,5.28,5.28,0,0,1,2.08-2.06,6,6,0,0,1,3-.73,5.24,5.24,0,0,1,2.58.63,4.14,4.14,0,0,1,1.1.9v-5.85h2.71v15.95h-2.56v-1.52A4.06,4.06,0,0,1,244.92,342.71Zm-1.12-24a5.2,5.2,0,0,1-2.63.64,6.14,6.14,0,0,1-3-.73,5.26,5.26,0,0,1-2.07-2.06,6.7,6.7,0,0,1,0-6.2,5.19,5.19,0,0,1,2.07-2.06,6,6,0,0,1,3-.73,5.24,5.24,0,0,1,2.58.63,4.26,4.26,0,0,1,1.1.89v-5.85h2.71v16H245v-1.53A4,4,0,0,1,243.8,318.69Zm-14.56.08a5.16,5.16,0,0,1-2.54.56,5.49,5.49,0,0,1-2.26-.44,3.5,3.5,0,0,1-1.49-1.23,3.1,3.1,0,0,1-.53-1.77,3.37,3.37,0,0,1,.46-1.74,3.13,3.13,0,0,1,1.52-1.23,7.21,7.21,0,0,1,2.8-.45h3v-.17a2.37,2.37,0,0,0-.72-1.84,3.12,3.12,0,0,0-2.18-.66,6,6,0,0,0-1.87.3,5,5,0,0,0-1.59.84l-1-1.95a6.51,6.51,0,0,1,2.21-1.08,9.67,9.67,0,0,1,2.64-.36,5.69,5.69,0,0,1,3.88,1.2,4.71,4.71,0,0,1,1.35,3.7v6.73h-2.54v-1.41A3,3,0,0,1,229.24,318.77Zm-18.64-8.39a5.7,5.7,0,0,1,2.2-2.07,6.63,6.63,0,0,1,3.22-.76,6.25,6.25,0,0,1,2.94.68,4.47,4.47,0,0,1,1.94,2l-2.05,1.21a3.49,3.49,0,0,0-1.25-1.2,3.42,3.42,0,0,0-1.61-.39,3.53,3.53,0,0,0-1.78.44,3.17,3.17,0,0,0-1.25,1.24,4.28,4.28,0,0,0,0,3.82,3.16,3.16,0,0,0,1.25,1.26,3.64,3.64,0,0,0,1.78.44,3.31,3.31,0,0,0,1.61-.4,3.36,3.36,0,0,0,1.25-1.21l2.05,1.2a4.55,4.55,0,0,1-1.94,2,6,6,0,0,1-2.94.7,6.75,6.75,0,0,1-3.22-.76,5.68,5.68,0,0,1-2.2-2.09,6.21,6.21,0,0,1,0-6.1Zm-3.31,2.07v6.73h-2.54v-1.41a3,3,0,0,1-1.08,1,5.1,5.1,0,0,1-2.53.56,5.46,5.46,0,0,1-2.26-.44,3.44,3.44,0,0,1-1.49-1.23,3,3,0,0,1-.53-1.77,3.28,3.28,0,0,1,.46-1.74,3.08,3.08,0,0,1,1.52-1.23,7.19,7.19,0,0,1,2.79-.45h3v-.17a2.37,2.37,0,0,0-.72-1.84,3.14,3.14,0,0,0-2.18-.66,6,6,0,0,0-1.87.3,5,5,0,0,0-1.59.84L197.2,309a6.56,6.56,0,0,1,2.22-1.08,9.56,9.56,0,0,1,2.64-.36,5.64,5.64,0,0,1,3.87,1.2A4.72,4.72,0,0,1,207.29,312.45Zm-39-16.63a34.61,34.61,0,0,1-23.56-9.34,35.58,35.58,0,0,1-11.55-24.92,6,6,0,0,1,12-.47,23.66,23.66,0,0,0,7.69,16.56,22.72,22.72,0,0,0,16.38,6.15,23.36,23.36,0,0,0,21.64-18.93L136.67,239a6,6,0,0,1-3.41-5.39c-.08-19,15.14-34.83,33.92-35.32a34.4,34.4,0,0,1,25.09,9.94A35.06,35.06,0,0,1,203,233.51a6,6,0,0,1-6,6h0a6,6,0,0,1-6-6,23.06,23.06,0,0,0-7.07-16.68,22.59,22.59,0,0,0-16.39-6.55,23.11,23.11,0,0,0-22,19.65l54.33,26a6,6,0,0,1,3.41,5.64c-.68,18.45-15.42,33.5-33.57,34.27C169.21,295.81,168.73,295.82,168.24,295.82Zm32.9,44.74a5.36,5.36,0,0,1-2.07,2.05,6,6,0,0,1-3,.73,5.35,5.35,0,0,1-2.6-.63,3.91,3.91,0,0,1-1.18-1v1.48h-2.56V327.24h2.66v5.88a4.31,4.31,0,0,1,1.12-.93,5.22,5.22,0,0,1,2.56-.63,6,6,0,0,1,3,.73,5.39,5.39,0,0,1,2.07,2.06,6.65,6.65,0,0,1,0,6.21Zm3.16-.07a5.85,5.85,0,0,1-.78-3,6,6,0,0,1,.76-3,5.57,5.57,0,0,1,2.11-2.09,6.2,6.2,0,0,1,3.06-.76,6,6,0,0,1,3,.74,5.44,5.44,0,0,1,2.07,2.08,6.34,6.34,0,0,1,.75,3.16c0,.1,0,.22,0,.37s0,.29,0,.4h-9a3.69,3.69,0,0,0,.39,1.1,3.11,3.11,0,0,0,1.33,1.23,4.24,4.24,0,0,0,2,.44,4.42,4.42,0,0,0,1.74-.32,4.09,4.09,0,0,0,1.37-.94l1.47,1.67a5.24,5.24,0,0,1-2,1.38,7.2,7.2,0,0,1-2.68.47,7,7,0,0,1-3.34-.76A5.59,5.59,0,0,1,204.3,340.49Zm11.2,26.69-4-4.92-2,1.89v3h-2.67v-16h2.67v9.63l5.57-5.15h3.22l-4.81,4.81,5.27,6.67Zm2.18-26.69a5.77,5.77,0,0,1-.79-3,6,6,0,0,1,.77-3,5.55,5.55,0,0,1,2.1-2.09,6.21,6.21,0,0,1,3.07-.76,6,6,0,0,1,3,.74,5.37,5.37,0,0,1,2.07,2.08,6.34,6.34,0,0,1,.75,3.16c0,.1,0,.22,0,.37s0,.29,0,.4h-9a3.21,3.21,0,0,0,.39,1.1,3.14,3.14,0,0,0,1.32,1.23,4.24,4.24,0,0,0,2,.44,4.39,4.39,0,0,0,1.74-.32,4,4,0,0,0,1.38-.94l1.46,1.67a5.24,5.24,0,0,1-2,1.38,7.18,7.18,0,0,1-2.67.47,7,7,0,0,1-3.35-.76A5.5,5.5,0,0,1,217.68,340.49Zm13.71,26.69h-2.56v-1.49a4.09,4.09,0,0,1-1.25,1,5.08,5.08,0,0,1-2.45.6,5.76,5.76,0,0,1-2.58-.55,4,4,0,0,1-1.75-1.68,5.78,5.78,0,0,1-.64-2.85V355.7h2.71v6.21a3.27,3.27,0,0,0,.71,2.29,2.58,2.58,0,0,0,2,.76,3.53,3.53,0,0,0,1.66-.38,2.58,2.58,0,0,0,1.09-1.17,4.19,4.19,0,0,0,.39-1.91v-5.8h2.69Zm2.51-24h-2.67V327.24h2.67Zm12.32,24h-2.69v-6.24a3.24,3.24,0,0,0-.7-2.28,2.67,2.67,0,0,0-2-.75,3.46,3.46,0,0,0-1.67.39,2.62,2.62,0,0,0-1.13,1.15,4.08,4.08,0,0,0-.4,1.92v5.81h-2.66V355.7h2.55v1.49a4.21,4.21,0,0,1,1.28-1,5.67,5.67,0,0,1,2.66-.6,5.5,5.5,0,0,1,2.46.53,4,4,0,0,1,1.7,1.66,5.77,5.77,0,0,1,.63,2.86Zm11.54-1.52a4.18,4.18,0,0,1-1.79,1.23,7.75,7.75,0,0,1-2.76.44,10,10,0,0,1-2.77-.38,7.33,7.33,0,0,1-2.11-.91l1-2a7.52,7.52,0,0,0,1.85.8,7.69,7.69,0,0,0,2.17.31,3.8,3.8,0,0,0,1.82-.33,1,1,0,0,0,.57-.91.79.79,0,0,0-.39-.72,3,3,0,0,0-1-.38c-.41-.09-.88-.16-1.39-.24s-1-.17-1.52-.29a5.49,5.49,0,0,1-1.39-.53,3,3,0,0,1-1-1,3.29,3.29,0,0,1,.24-3.49,4,4,0,0,1,1.75-1.26,7.19,7.19,0,0,1,2.68-.45,10.56,10.56,0,0,1,2.33.27,6.51,6.51,0,0,1,2,.74l-1.06,2a5.53,5.53,0,0,0-1.63-.66,7.88,7.88,0,0,0-1.66-.18,3.69,3.69,0,0,0-1.8.35,1.06,1.06,0,0,0-.6.92.85.85,0,0,0,.38.77,2.84,2.84,0,0,0,1,.4c.42.09.88.18,1.39.26s1,.18,1.52.3a5.55,5.55,0,0,1,1.38.52,2.55,2.55,0,0,1,1,.93,2.85,2.85,0,0,1,.39,1.57A2.9,2.9,0,0,1,257.76,365.66Zm8.67,1.47a5.08,5.08,0,0,1-1.39.2,4.1,4.1,0,0,1-2.93-1,3.76,3.76,0,0,1-1-2.87v-5.55h-1.89v-2.15h1.89v-2.62h2.67v2.62h3.09v2.15h-3.09v5.46a1.79,1.79,0,0,0,.42,1.27,1.6,1.6,0,0,0,1.21.45,2.21,2.21,0,0,0,1.46-.47l.78,1.91A3.23,3.23,0,0,1,266.43,367.13Zm1.83-23.94h-2.67V331.71h2.56v1.49a4,4,0,0,1,1.28-1,5.63,5.63,0,0,1,2.65-.6,5.37,5.37,0,0,1,2.46.54,4,4,0,0,1,1.7,1.65,5.69,5.69,0,0,1,.64,2.86v6.58h-2.69V337a3.23,3.23,0,0,0-.71-2.28,2.65,2.65,0,0,0-2-.76,3.53,3.53,0,0,0-1.68.39,2.67,2.67,0,0,0-1.13,1.15,4.22,4.22,0,0,0-.39,1.93Zm12,18.71a2.41,2.41,0,0,1,0,.4h-9a3.38,3.38,0,0,0,.39,1.09,3.16,3.16,0,0,0,1.32,1.24,4.4,4.4,0,0,0,2,.44,4.54,4.54,0,0,0,1.74-.32,4.06,4.06,0,0,0,1.38-.95l1.46,1.68a5.21,5.21,0,0,1-2,1.38,7.28,7.28,0,0,1-2.68.47,7.07,7.07,0,0,1-3.34-.76,5.53,5.53,0,0,1-2.22-2.09,5.88,5.88,0,0,1-.78-3,6,6,0,0,1,.76-3.05,5.55,5.55,0,0,1,2.11-2.08,6,6,0,0,1,3.06-.76,5.92,5.92,0,0,1,3,.74,5.32,5.32,0,0,1,2.06,2.07,6.34,6.34,0,0,1,.75,3.16C280.23,361.62,280.23,361.75,280.22,361.9Zm-.1-21.34a6.8,6.8,0,0,1,0-6.21,5.35,5.35,0,0,1,2.08-2.06,6,6,0,0,1,3-.73,5.24,5.24,0,0,1,2.58.63,4.26,4.26,0,0,1,1.09.9v-5.85h2.71v15.95H289v-1.52a4.06,4.06,0,0,1-1.19,1,5.3,5.3,0,0,1-2.63.63,6,6,0,0,1-3-.73A5.32,5.32,0,0,1,280.12,340.56Zm14,26.62h-2.68v-6.24a3.24,3.24,0,0,0-.71-2.28,2.66,2.66,0,0,0-2-.75,3.53,3.53,0,0,0-1.68.39,2.67,2.67,0,0,0-1.13,1.15,4.08,4.08,0,0,0-.4,1.92v5.81h-2.66V355.7h2.55v1.49a4.21,4.21,0,0,1,1.28-1,5.7,5.7,0,0,1,2.66-.6,5.5,5.5,0,0,1,2.46.53,4,4,0,0,1,1.7,1.66,5.77,5.77,0,0,1,.63,2.86Zm1.33-51.79a3.05,3.05,0,0,0,1.32,1.24,4.37,4.37,0,0,0,2,.44,4.61,4.61,0,0,0,1.74-.32,4.12,4.12,0,0,0,1.37-.95l1.47,1.68a5.24,5.24,0,0,1-2,1.38,7.2,7.2,0,0,1-2.68.47,7.09,7.09,0,0,1-3.34-.76,5.66,5.66,0,0,1-2.22-2.09,5.88,5.88,0,0,1-.78-3,6,6,0,0,1,.76-3.05,5.55,5.55,0,0,1,2.11-2.08,6.09,6.09,0,0,1,3.06-.76,5.9,5.9,0,0,1,3,.74,5.35,5.35,0,0,1,2.07,2.07,6.34,6.34,0,0,1,.75,3.16c0,.1,0,.23,0,.38s0,.28,0,.4h-9A3.4,3.4,0,0,0,295.45,315.39Zm10.42,22.52c0,.15,0,.29,0,.4h-9a3.21,3.21,0,0,0,.39,1.1,3.08,3.08,0,0,0,1.32,1.23,4.24,4.24,0,0,0,2,.44,4.42,4.42,0,0,0,1.74-.32,4.13,4.13,0,0,0,1.38-.94l1.46,1.67a5.24,5.24,0,0,1-2,1.38,7.2,7.2,0,0,1-2.68.47,7,7,0,0,1-3.34-.76,5.5,5.5,0,0,1-2.21-2.09,5.77,5.77,0,0,1-.79-3,6.07,6.07,0,0,1,.76-3,5.64,5.64,0,0,1,2.11-2.09,6.21,6.21,0,0,1,3.07-.76,6,6,0,0,1,3,.74,5.37,5.37,0,0,1,2.07,2.08,6.34,6.34,0,0,1,.75,3.16C305.88,337.64,305.88,337.76,305.87,337.91Zm26.54-53.29a6,6,0,0,1-5.42,3.45h0a6,6,0,0,1-5.43-3.44l-32.61-69.19a6,6,0,1,1,10.85-5.12L327,268l27-57.64a6,6,0,0,1,10.86,5.1Z" transform="translate(0 -86.33)"/><path class="cls-4" d="M257.79,310.16a3.4,3.4,0,0,0-1.72-.42,3.52,3.52,0,0,0-1.73.42,2.86,2.86,0,0,0-1.17,1.19,3.65,3.65,0,0,0-.35,1.16h6.46a3.24,3.24,0,0,0-.34-1.17A3,3,0,0,0,257.79,310.16Z" transform="translate(0 -86.33)"/><path class="cls-4" d="M301.79,334.17a3.36,3.36,0,0,0-1.71-.42,3.56,3.56,0,0,0-1.74.42,2.94,2.94,0,0,0-1.17,1.2,3.56,3.56,0,0,0-.34,1.16h6.46a3.35,3.35,0,0,0-.34-1.18A3.06,3.06,0,0,0,301.79,334.17Z" transform="translate(0 -86.33)"/><path class="cls-4" d="M258.9,334.17a3.37,3.37,0,0,0-1.72-.42,3.54,3.54,0,0,0-1.73.42,2.82,2.82,0,0,0-1.17,1.2,3.56,3.56,0,0,0-.34,1.16h6.46a3.37,3.37,0,0,0-.35-1.18A3,3,0,0,0,258.9,334.17Z" transform="translate(0 -86.33)"/><path class="cls-4" d="M300,310.16a3.37,3.37,0,0,0-1.72-.42,3.54,3.54,0,0,0-1.73.42,2.86,2.86,0,0,0-1.17,1.19,3.64,3.64,0,0,0-.34,1.16h6.46a3.07,3.07,0,0,0-.35-1.17A3,3,0,0,0,300,310.16Z" transform="translate(0 -86.33)"/><path class="cls-4" d="M225.7,335.35a3.1,3.1,0,0,0-1.15-1.18,3.4,3.4,0,0,0-1.72-.42,3.49,3.49,0,0,0-1.73.42,2.9,2.9,0,0,0-1.18,1.2,3.56,3.56,0,0,0-.34,1.16H226A3.35,3.35,0,0,0,225.7,335.35Z" transform="translate(0 -86.33)"/><g id="Accen_Circles" data-name="Accen Circles"><circle class="cls-5" cx="196.98" cy="147.16" r="5.5"/><circle class="cls-6" cx="139.37" cy="147.16" r="5.5"/><circle class="cls-3" cx="139.12" cy="175.16" r="5.5"/><circle class="cls-7" cx="196.98" cy="175.34" r="5.5"/><circle class="cls-8" cx="221.48" cy="163.07" r="5.5"/><circle class="cls-1" cx="279.66" cy="163.07" r="5.5"/><circle class="cls-9" cx="294.36" cy="126.55" r="5.5"/><circle class="cls-10" cx="359.43" cy="126.55" r="5.5"/><circle class="cls-11" cx="327.07" cy="195.74" r="5.5"/><circle class="cls-12" cx="250.83" cy="192.04" r="5.5"/><circle class="cls-4" cx="250.61" cy="133.51" r="5.5"/></g></g></svg>