<svg id="Laag_1" data-name="Laag 1" xmlns="http://www.w3.org/2000/svg" viewBox="0 0 1364.05 493.39"><defs><style>.cls-1{isolation:isolate;}.cls-2{fill:#020202;}</style></defs><g id="Academie_beeldende_kunsten_vilvoorden" data-name="Academie beeldende kunsten vilvoorden" class="cls-1"><g class="cls-1"><path d="M790.86,512.48l-5.62-22.37H757.82l-6.08,21.79-14.68-1.14,10.09-27.88,15.38-49.32,20.53-1.49,14.79,49.09L807.37,510ZM772.73,447h-1.49l-9.86,31H781.8Z" transform="translate(-303.38 -285.99)"/><path d="M835.48,467.74a9.22,9.22,0,0,0-7.8,3.62q-2.76,3.61-2.76,11.07t2.81,12a9.09,9.09,0,0,0,8.21,4.53,9.75,9.75,0,0,0,5.39-1.72,17,17,0,0,0,4-3.44L846.6,492l5.74,6c-.23.38-.52.92-.86,1.61a31.66,31.66,0,0,1-2.52,3.67,33,33,0,0,1-4.25,4.64,23.27,23.27,0,0,1-5.79,3.67,17.4,17.4,0,0,1-7.46,1.67,16.88,16.88,0,0,1-14-7q-5.4-7-5.39-18.24a39.05,39.05,0,0,1,8.14-24.55q8.14-10.54,19-10.55a23.61,23.61,0,0,1,6.66,1,29,29,0,0,1,6.76,3l-8,14.1A14.58,14.58,0,0,0,835.48,467.74Z" transform="translate(-303.38 -285.99)"/><path d="M860.31,507.6Q856,503.31,856,496t6.65-12.62a25,25,0,0,1,16.17-5.33h7.8v-1.95q0-5.62-2.29-7.69t-8.6-2.06a22,22,0,0,0-6.25,1.09,48.41,48.41,0,0,0-8.09,3.38l-3.33-9.06a57.51,57.51,0,0,1,12-6.2q7.05-2.74,11.64-2.75,18,0,18,17.44v22.48q0,6.42,4,14.34l-12.16,5.16a62.05,62.05,0,0,1-4.25-9.87q-6.3,9.53-15.94,9.52A15,15,0,0,1,860.31,507.6Zm15.89-7.4q4.57,0,10.43-4.7v-7.68a46.68,46.68,0,0,0-9.86-1.38q-7.23,0-7.23,6.42a7.59,7.59,0,0,0,1.84,5.34A6.21,6.21,0,0,0,876.2,500.2Z" transform="translate(-303.38 -285.99)"/><path d="M944,500.66q-9,11.25-15.49,11.24a16.23,16.23,0,0,1-13.36-6.65q-5.22-6.64-5.22-17.09,0-14.34,8-24.2t19.56-9.87l6.42.92v-2.18L942.5,426l15.71-2.87-1.49,59v10.1q0,6.87,3.44,15.82l-12.39,5.17A35.78,35.78,0,0,1,944,500.66ZM922.77,482.2q0,7.33,2.69,11.47a8.76,8.76,0,0,0,7.8,4.13q5.1,0,10.61-4.13V468.89a57.73,57.73,0,0,0-10.21-1.38,9.63,9.63,0,0,0-8,3.67Q922.77,474.86,922.77,482.2Z" transform="translate(-303.38 -285.99)"/><path d="M991.93,500.2a16.47,16.47,0,0,0,7-1.72,26.55,26.55,0,0,0,5.74-3.44l2.06-1.72,5.28,6.43a25.68,25.68,0,0,1-3.56,4.47,35.09,35.09,0,0,1-4.87,4.3,25.86,25.86,0,0,1-6.54,3.21,25.15,25.15,0,0,1-8.43,1.44,18.76,18.76,0,0,1-15.14-7.06q-5.85-7-5.85-18.18a39.05,39.05,0,0,1,8.14-24.55q8.15-10.54,19-10.55,8.37,0,13,4.7t4.65,13.2a45.28,45.28,0,0,1-1.72,11.47l-2.3,2.4-28.67,2.64Q981.72,500.22,991.93,500.2Zm0-35.55a10.66,10.66,0,0,0-8.48,4.07,18.11,18.11,0,0,0-4,10.38l19.5-2.41a34.68,34.68,0,0,0,.34-4.36Q999.27,464.65,991.93,464.65Z" transform="translate(-303.38 -285.99)"/><path d="M1054.33,472.33c-.91-1.76-3.06-2.64-6.42-2.64s-7.19,1.34-11.47,4v8.37l1.26,27-15.37,2.86,1.38-27.87a201.6,201.6,0,0,0-2.53-27.53l13.88-3q.81,6.66,1.15,13a47,47,0,0,1,3.9-4.53,35.16,35.16,0,0,1,6.88-5.05,18.43,18.43,0,0,1,9.52-2.81,11.55,11.55,0,0,1,8.15,3.1,14.58,14.58,0,0,1,4.24,8.49q9.52-11.58,19.27-11.59a12.14,12.14,0,0,1,9.64,4.08q3.56,4.06,3.55,11.06l-.69,12.85,1.27,27.53-15.49,2.87,1.38-29.6q0-7.9-1.38-10.55t-6.31-2.64q-4.94,0-11.12,3.79l-.46,8.6,1.26,27.53-15.49,2.87,1.38-29.6Q1055.71,475,1054.33,472.33Z" transform="translate(-303.38 -285.99)"/><path d="M1113.75,436.72a9.58,9.58,0,0,1,3-6.89,9.39,9.39,0,0,1,6.88-3,8,8,0,0,1,6,2.13c1.38,1.41,2.06,3.53,2.06,6.36a10.11,10.11,0,0,1-2.92,7.28,9.12,9.12,0,0,1-6.77,3,7.54,7.54,0,0,1-6-2.52A9.39,9.39,0,0,1,1113.75,436.72Zm16.17,16.8-1.37,28.56,1.26,27-15.37,2.86,1.37-27.87-1.26-27.64Z" transform="translate(-303.38 -285.99)"/><path d="M1163.19,500.2a16.42,16.42,0,0,0,7-1.72,26.55,26.55,0,0,0,5.74-3.44l2.06-1.72,5.28,6.43a25.21,25.21,0,0,1-3.56,4.47,35.09,35.09,0,0,1-4.87,4.3,25.86,25.86,0,0,1-6.54,3.21,25.06,25.06,0,0,1-8.43,1.44,18.77,18.77,0,0,1-15.14-7.06q-5.85-7-5.85-18.18a39.05,39.05,0,0,1,8.14-24.55q8.15-10.54,19-10.55,8.39,0,13,4.7t4.65,13.2A44.83,44.83,0,0,1,1182,482.2l-2.3,2.4L1151,487.24Q1153,500.22,1163.19,500.2Zm0-35.55a10.67,10.67,0,0,0-8.49,4.07,18.18,18.18,0,0,0-4,10.38l19.5-2.41a35,35,0,0,0,.35-4.36Q1170.53,464.65,1163.19,464.65Z" transform="translate(-303.38 -285.99)"/><path d="M1241.76,454q7.68,0,12.5,6.65t4.82,17.09q0,15-7.86,24.61a25.12,25.12,0,0,1-20.36,9.57,165.65,165.65,0,0,1-19.27-1.83l1.15-26-1.38-58,15.72-2.87-1.5,29.6V465.1a43.44,43.44,0,0,1,3.1-3.9,30.09,30.09,0,0,1,5.74-4.64A13.45,13.45,0,0,1,1241.76,454Zm-4.47,14.91a26.6,26.6,0,0,0-11.71,3.21v10l.69,16.86a75.4,75.4,0,0,0,9.06.58q11,0,11-15.32T1237.29,468.89Z" transform="translate(-303.38 -285.99)"/><path d="M1289.25,500.2a16.46,16.46,0,0,0,7-1.72A26.55,26.55,0,0,0,1302,495l2.06-1.72,5.28,6.43a25.68,25.68,0,0,1-3.56,4.47,35.09,35.09,0,0,1-4.87,4.3,25.86,25.86,0,0,1-6.54,3.21,25.15,25.15,0,0,1-8.43,1.44,18.76,18.76,0,0,1-15.14-7.06q-5.85-7-5.85-18.18a39.05,39.05,0,0,1,8.14-24.55q8.15-10.54,19-10.55c5.58,0,9.93,1.57,13,4.7s4.65,7.54,4.65,13.2a45.28,45.28,0,0,1-1.72,11.47l-2.3,2.4-28.67,2.64Q1279,500.22,1289.25,500.2Zm0-35.55a10.67,10.67,0,0,0-8.49,4.07,18.11,18.11,0,0,0-4,10.38l19.5-2.41a35,35,0,0,0,.35-4.36Q1296.59,464.65,1289.25,464.65Z" transform="translate(-303.38 -285.99)"/><path d="M1340.4,500.2a16.47,16.47,0,0,0,7-1.72,26.55,26.55,0,0,0,5.74-3.44l2.06-1.72,5.28,6.43a25.68,25.68,0,0,1-3.56,4.47,35.09,35.09,0,0,1-4.87,4.3,25.86,25.86,0,0,1-6.54,3.21,25.15,25.15,0,0,1-8.43,1.44,18.76,18.76,0,0,1-15.14-7.06q-5.85-7-5.85-18.18a39.05,39.05,0,0,1,8.14-24.55q8.14-10.54,19-10.55,8.37,0,13,4.7t4.65,13.2a45.28,45.28,0,0,1-1.72,11.47l-2.3,2.4-28.67,2.64Q1330.19,500.22,1340.4,500.2Zm0-35.55a10.66,10.66,0,0,0-8.48,4.07,18.11,18.11,0,0,0-4,10.38l19.5-2.41a35,35,0,0,0,.35-4.36Q1347.75,464.65,1340.4,464.65Z" transform="translate(-303.38 -285.99)"/><path d="M1386.63,423.12l-1.49,59,1.26,27-15.48,2.86,1.37-27.87-1.37-58Z" transform="translate(-303.38 -285.99)"/><path d="M1430.22,500.66q-9,11.25-15.49,11.24a16.23,16.23,0,0,1-13.36-6.65q-5.22-6.64-5.22-17.09,0-14.34,8-24.2t19.56-9.87l6.42.92v-2.18L1428.73,426l15.71-2.87-1.49,59v10.1q0,6.87,3.44,15.82L1434,513.17A35.78,35.78,0,0,1,1430.22,500.66ZM1409,482.2q0,7.33,2.69,11.47a8.76,8.76,0,0,0,7.8,4.13q5.1,0,10.61-4.13V468.89a57.73,57.73,0,0,0-10.21-1.38,9.64,9.64,0,0,0-8,3.67Q1409,474.86,1409,482.2Z" transform="translate(-303.38 -285.99)"/><path d="M1478.16,500.2a16.47,16.47,0,0,0,7-1.72,26.55,26.55,0,0,0,5.74-3.44l2.06-1.72,5.28,6.43a25.68,25.68,0,0,1-3.56,4.47,35.09,35.09,0,0,1-4.87,4.3,25.86,25.86,0,0,1-6.54,3.21,25.15,25.15,0,0,1-8.43,1.44,18.76,18.76,0,0,1-15.14-7.06q-5.85-7-5.85-18.18a39.05,39.05,0,0,1,8.14-24.55q8.15-10.54,19-10.55,8.37,0,13,4.7t4.65,13.2A45.28,45.28,0,0,1,1497,482.2l-2.3,2.4L1466,487.24Q1467.95,500.22,1478.16,500.2Zm0-35.55a10.66,10.66,0,0,0-8.48,4.07,18.11,18.11,0,0,0-4,10.38l19.5-2.41a34.68,34.68,0,0,0,.34-4.36Q1485.5,464.65,1478.16,464.65Z" transform="translate(-303.38 -285.99)"/><path d="M1540.56,472.33c-.91-1.76-3.06-2.64-6.42-2.64s-7.19,1.34-11.47,4v8.37l1.26,27-15.37,2.86,1.38-27.87a201.6,201.6,0,0,0-2.53-27.53l13.88-3q.81,6.66,1.15,13a47,47,0,0,1,3.9-4.53,35.16,35.16,0,0,1,6.88-5.05,19.08,19.08,0,0,1,9.92-2.81,11.2,11.2,0,0,1,8.78,4.08q3.55,4.06,3.56,11.06l-.69,12.85,1.26,27.53-15.49,2.87,1.38-29.6Q1541.94,475,1540.56,472.33Z" transform="translate(-303.38 -285.99)"/><path d="M1599,500.66q-9,11.25-15.49,11.24a16.23,16.23,0,0,1-13.36-6.65q-5.22-6.64-5.22-17.09,0-14.34,8-24.2t19.56-9.87l6.42.92v-2.18L1597.46,426l15.71-2.87-1.49,59v10.1q0,6.87,3.44,15.82l-12.39,5.17A35.78,35.78,0,0,1,1599,500.66Zm-21.22-18.46q0,7.33,2.69,11.47a8.76,8.76,0,0,0,7.8,4.13q5.1,0,10.61-4.13V468.89a57.62,57.62,0,0,0-10.21-1.38,9.64,9.64,0,0,0-8,3.67Q1577.73,474.86,1577.73,482.2Z" transform="translate(-303.38 -285.99)"/><path d="M1646.89,500.2a16.47,16.47,0,0,0,7-1.72,26.55,26.55,0,0,0,5.74-3.44l2.06-1.72,5.28,6.43a25.68,25.68,0,0,1-3.56,4.47,35.09,35.09,0,0,1-4.87,4.3,25.86,25.86,0,0,1-6.54,3.21,25.15,25.15,0,0,1-8.43,1.44,18.76,18.76,0,0,1-15.14-7.06q-5.85-7-5.85-18.18a39.05,39.05,0,0,1,8.14-24.55q8.15-10.54,19-10.55,8.37,0,13,4.7t4.65,13.2a45.28,45.28,0,0,1-1.72,11.47l-2.3,2.4-28.67,2.64Q1636.69,500.22,1646.89,500.2Zm0-35.55a10.66,10.66,0,0,0-8.48,4.07,18.11,18.11,0,0,0-4,10.38l19.5-2.41a35,35,0,0,0,.35-4.36Q1654.24,464.65,1646.89,464.65Z" transform="translate(-303.38 -285.99)"/></g><g class="cls-1"><path d="M391.94,779.37a163,163,0,0,1-35-3.84l13.67-51.26a86,86,0,0,0,27.33,4.7Q424,729,424,685.82l-6-196.93,60.66-10.68-6,192.66q0,46.57-22.64,77.53T391.94,779.37Z" transform="translate(-303.38 -285.99)"/></g><g class="cls-1"><path d="M617.49,400.1q27.33,0,45.92,23.92T682,488.52q0,56.82-29.26,92.06T579.9,615.82a175.35,175.35,0,0,1-20.08-1.28L562,696.13l-58.53,10.68L509,512h.43Q507.7,454.78,500,409.5l51.69-11.11Q554.26,421,556,443.24q.85-2.13,8.76-11.74T588,411Q603.4,400.1,617.49,400.1Zm-16.66,55.53q-22.65,0-44,12.39v36.74l1.71,61.08q23.07,3.85,35,3.85,41,0,41-57T600.83,455.63Z" transform="translate(-303.38 -285.99)"/></g><path class="cls-2" d="M718.78,675.44l1.83,18.91s-31.41,53.38-133.28,73.2l-1.83-16.16a246.7,246.7,0,0,0,40-11.59C670,722.72,700.79,695.27,718.78,675.44Z" transform="translate(-303.38 -285.99)"/><path d="M365.3,676.05c-3.36.61-7,1.22-10.37,1.83-3.36-4.27-7-8.84-10.37-13.11a245.08,245.08,0,0,1-13.42-22.57,263.06,263.06,0,0,1-12.2-27.45,217.55,217.55,0,0,1-11.28-38.43,212.88,212.88,0,0,1-4.27-42.09c0,1.53-.31-32.63,4.27-58.55,4.27-23.49,12.2-40.26,18.6-53.38,23.79-48.8,57.95-77.16,65.88-83.56a243.18,243.18,0,0,1,98.51-47.58c98.51-21.35,175.37,29.89,185.43,36.6,52.46,34.76,72.89,79.9,72.89,79.9l-10.67,1.22S673,292.38,519,307.63,327.78,463.48,327.78,463.48s-28.36,74.72,6.1,158a217.5,217.5,0,0,0,11,22.57A177,177,0,0,0,365.3,676.05Z" transform="translate(-303.38 -285.99)"/><g class="cls-1"><path d="M777.78,650.6l-21.56-31.77v.8l1.26,27L742,649.45l1.38-27.87-1.38-58,15.72-2.87-1.49,55.41L779.16,591l10.78,7.35-20.07,18.81,21,24.77Z" transform="translate(-303.38 -285.99)"/><path d="M811,649.45a13.14,13.14,0,0,1-10-4.07q-3.84-4.07-3.84-10.72l.68-13.19-1.26-27.53L812,591.07l-1.49,34.87q0,4.93,1.78,7.23c1.18,1.53,3.08,2.29,5.68,2.29s6.19-1.3,10.78-3.9v-6.88l-1.26-30.17,15.48-2.87-1.37,28.68.11,9.4a32.39,32.39,0,0,0,3.79,14.8l-11.93,5.28q-3.79-7.45-4.59-11.93Q818.62,649.45,811,649.45Z" transform="translate(-303.38 -285.99)"/><path d="M887.67,609.88q-1.38-2.64-6.43-2.64t-11.47,4v8.37l1.27,27-15.38,2.86L857,621.58a203.31,203.31,0,0,0-2.52-27.53l13.88-3c.53,4.43.91,8.76,1.14,13a47,47,0,0,1,3.9-4.53,35.28,35.28,0,0,1,6.89-5,19.06,19.06,0,0,1,9.92-2.81,11.2,11.2,0,0,1,8.77,4.07q3.56,4.08,3.56,11.07l-.69,12.85,1.26,27.53L887.67,650l1.37-29.6Q889,612.53,887.67,609.88Z" transform="translate(-303.38 -285.99)"/><path d="M933.09,638.79q6,0,6-5.28,0-1.83-2.59-3.44a48.12,48.12,0,0,0-6.3-3.21q-3.74-1.61-7.46-3.62a18.53,18.53,0,0,1-6.31-5.56,13.5,13.5,0,0,1-2.58-8.14q0-7.69,6.77-13.42a23.39,23.39,0,0,1,15.6-5.74,33.6,33.6,0,0,1,8.08,1,30.18,30.18,0,0,1,7.63,3l-7.68,14c-.54-.46-1.23-1-2.07-1.72a25.92,25.92,0,0,0-4.76-2.7,14.88,14.88,0,0,0-6.19-1.66,6.26,6.26,0,0,0-4.13,1.2,4.13,4.13,0,0,0-1.44,3.33q0,2.13,4,4.24a73.2,73.2,0,0,0,8.66,3.91,23.76,23.76,0,0,1,8.66,5.84,13.44,13.44,0,0,1,4,9.7q0,8-6.6,14.11a21.75,21.75,0,0,1-15.19,6.08,24.78,24.78,0,0,1-17.1-7.23l-2.06-2.41L919,630.53c.46.61,1.11,1.37,1.95,2.29a25.62,25.62,0,0,0,5,3.67A13.75,13.75,0,0,0,933.09,638.79Z" transform="translate(-303.38 -285.99)"/><path d="M965.44,593.94V581.43l15.48-3-1.49,15.49h13.88l-1.26,9.4H979l-.57,24q0,5.38,1,7.17c.69,1.18,2,1.77,3.79,1.77a29.39,29.39,0,0,0,7.34-1.26l.69,8.15q-7.57,6.3-13.31,6.3a12,12,0,0,1-9.41-4.18q-3.66-4.18-3.67-11l.69-12.84-.11-18.13h-7.92l1.26-9.4Z" transform="translate(-303.38 -285.99)"/><path d="M1022.33,637.75a16.47,16.47,0,0,0,7-1.72,26.45,26.45,0,0,0,5.73-3.44l2.07-1.72,5.27,6.42a25.21,25.21,0,0,1-3.55,4.48,35.15,35.15,0,0,1-4.88,4.3,25.52,25.52,0,0,1-6.54,3.21,25.06,25.06,0,0,1-8.43,1.44,18.77,18.77,0,0,1-15.14-7.06q-5.85-7-5.85-18.18a39.06,39.06,0,0,1,8.15-24.55q8.15-10.54,19-10.55,8.37,0,13,4.7t4.64,13.19a44.84,44.84,0,0,1-1.72,11.48l-2.29,2.4-28.68,2.64Q1012.12,637.75,1022.33,637.75Zm0-35.55a10.68,10.68,0,0,0-8.49,4.07,18.17,18.17,0,0,0-4,10.38l19.5-2.41a34.68,34.68,0,0,0,.34-4.36Q1029.67,602.2,1022.33,602.2Z" transform="translate(-303.38 -285.99)"/><path d="M1084.73,609.88q-1.38-2.64-6.42-2.64t-11.47,4v8.37l1.26,27-15.37,2.86,1.37-27.87a200.13,200.13,0,0,0-2.52-27.53l13.88-3c.53,4.43.92,8.76,1.15,13a44.37,44.37,0,0,1,3.9-4.53,34.85,34.85,0,0,1,6.88-5,19.06,19.06,0,0,1,9.92-2.81,11.2,11.2,0,0,1,8.77,4.07q3.57,4.08,3.56,11.07l-.69,12.85,1.26,27.53L1084.73,650l1.38-29.6Q1086.11,612.53,1084.73,609.88Z" transform="translate(-303.38 -285.99)"/><path d="M1157.8,635.12h1.37l5.74-19.73,12-45.77,13.88,2.06-13.65,45.54-9,31.32L1147,650l-8.14-30.63-13.31-46.91,16.29-2.87,10.44,44.28Z" transform="translate(-303.38 -285.99)"/><path d="M1198.4,574.26a9.57,9.57,0,0,1,3-6.88,9.41,9.41,0,0,1,6.89-3,8,8,0,0,1,6,2.12c1.38,1.42,2.06,3.54,2.06,6.37a10.11,10.11,0,0,1-2.92,7.28,9.12,9.12,0,0,1-6.77,3,7.54,7.54,0,0,1-6-2.52A9.4,9.4,0,0,1,1198.4,574.26Zm16.17,16.81-1.37,28.56,1.26,27-15.37,2.86,1.38-27.87-1.27-27.64Z" transform="translate(-303.38 -285.99)"/><path d="M1242.91,560.67l-1.5,59,1.27,27-15.49,2.86,1.38-27.87-1.38-58Z" transform="translate(-303.38 -285.99)"/><path d="M1275.71,635.12h1.49L1281,619.4l6.19-28.33,14.22,1.72-8.6,28.45-7.22,26.84L1266,649.8l-6.77-27.88-8.26-27.87,15.6-2.87,4.94,25.24Z" transform="translate(-303.38 -285.99)"/><path d="M1313.45,600.59q7.9-10.22,18.52-10.21t16.52,6.88q5.91,6.88,5.91,18.24,0,15.15-7.63,25.18t-19.21,10a20,20,0,0,1-15.78-7.17q-6.24-7.17-6.25-18.07Q1305.53,610.8,1313.45,600.59Zm28.1,20.88q0-16.63-11.36-16.64-11.81,0-11.81,15.6,0,8.15,3.33,12.74a10.31,10.31,0,0,0,8.77,4.58,9.31,9.31,0,0,0,8.26-4.18Q1341.54,629.39,1341.55,621.47Z" transform="translate(-303.38 -285.99)"/><path d="M1368.73,600.59q7.92-10.22,18.53-10.21t16.52,6.88q5.9,6.88,5.9,18.24,0,15.15-7.62,25.18t-19.22,10a20,20,0,0,1-15.77-7.17q-6.25-7.17-6.25-18.07Q1360.82,610.8,1368.73,600.59Zm28.11,20.88q0-16.63-11.36-16.64-11.82,0-11.81,15.6,0,8.15,3.32,12.74a10.34,10.34,0,0,0,8.78,4.58,9.32,9.32,0,0,0,8.26-4.18Q1396.84,629.39,1396.84,621.47Z" transform="translate(-303.38 -285.99)"/><path d="M1418.29,594.05l13.88-3q1,8.83,1.37,16.75,10.44-16.19,19.62-16.18l-1.26,17.9a36.53,36.53,0,0,0-10.5,1.2,22.1,22.1,0,0,0-7.86,4.76v4.13l1.26,27-15.37,2.86,1.38-27.87A203.31,203.31,0,0,0,1418.29,594.05Z" transform="translate(-303.38 -285.99)"/><path d="M1490.67,638.21q-9,11.25-15.49,11.24a16.22,16.22,0,0,1-13.36-6.65q-5.22-6.64-5.22-17.09,0-14.34,8-24.2t19.56-9.87l6.42.92v-2.18l-1.38-26.84,15.72-2.87-1.49,59v10.09a44.76,44.76,0,0,0,3.44,15.83l-12.39,5.17A35.78,35.78,0,0,1,1490.67,638.21Zm-21.23-18.46q0,7.34,2.7,11.47a8.76,8.76,0,0,0,7.8,4.13q5.1,0,10.61-4.13V606.44a57.73,57.73,0,0,0-10.21-1.38,9.63,9.63,0,0,0-8,3.67Q1469.45,612.41,1469.44,619.75Z" transform="translate(-303.38 -285.99)"/><path d="M1538.61,637.75a16.47,16.47,0,0,0,7-1.72,26.45,26.45,0,0,0,5.73-3.44l2.07-1.72,5.27,6.42a24.75,24.75,0,0,1-3.55,4.48,35.15,35.15,0,0,1-4.88,4.3,25.61,25.61,0,0,1-6.53,3.21,25.15,25.15,0,0,1-8.43,1.44,18.78,18.78,0,0,1-15.15-7.06q-5.85-7-5.85-18.18a39.06,39.06,0,0,1,8.15-24.55q8.14-10.54,19-10.55,8.37,0,13,4.7t4.64,13.19a44.84,44.84,0,0,1-1.72,11.48l-2.29,2.4-28.68,2.64Q1528.4,637.75,1538.61,637.75Zm0-35.55a10.69,10.69,0,0,0-8.49,4.07,18.17,18.17,0,0,0-4,10.38l19.5-2.41a34.68,34.68,0,0,0,.34-4.36Q1546,602.2,1538.61,602.2Z" transform="translate(-303.38 -285.99)"/></g></g></svg>